# xmcd
#
# Track frame offsets: 
#        150
#        19036
#        34851
#        50479
#        71705
#        86086
#        104448
#        127328
#        145166
#        168324
#        185460
#        206959
#        226862
#        245972
#        264672
#
# Disc length: 3749 seconds
#
# Revision: 0
# Processed by: cddbd v1.5.2PL0 Copyright (c) Steve Scherf et al.
# Submitted via: ExactAudioCopyFreeDBPlugin 1.0
#
DISCID=e50ea30f
DTITLE=群星 - stereo 天籁之爱
DYEAR=2012
DGENRE=Acid
TTITLE0=王麟VS完玛三智 - 唐古拉
TTITLE1=索南扎西 - 我心爱的姑娘
TTITLE2=上官红燕 - 玛尼情歌
TTITLE3=赵真 - 梦回草原
TTITLE4=荣联合 - 我的新娘在草原
TTITLE5=郭燕 - 莲心
TTITLE6=钟明秋 - 传奇
TTITLE7=杭娇 - 爱上民族风
TTITLE8=何龙雨 - 情系大草原
TTITLE9=登格尔 - 梦回喜马拉雅
TTITLE10=阿木乃 - 父亲的草原母亲的河
TTITLE11=胡红艳 - 骑上骏马回草原
TTITLE12=门丽 - 美丽的西藏
TTITLE13=何凌瑶 - 高原花
TTITLE14=云丹久美 - 牧野情歌
EXTD=
EXTT0=
EXTT1=
EXTT2=
EXTT3=
EXTT4=
EXTT5=
EXTT6=
EXTT7=
EXTT8=
EXTT9=
EXTT10=
EXTT11=
EXTT12=
EXTT13=
EXTT14=
PLAYORDER=
